<?xml version="1.0" encoding="iso-8859-1"?>
<!-- Generator: Adobe Illustrator 19.0.0, SVG Export Plug-In . SVG Version: 6.00 Build 0)  -->
<svg version="1.1" id="Layer_1" xmlns="http://www.w3.org/2000/svg" xmlns:xlink="http://www.w3.org/1999/xlink" x="0px" y="0px"
	 viewBox="0 0 512 512" style="enable-background:new 0 0 512 512;" xml:space="preserve">
<circle style="fill:#DFDFE2;" cx="256" cy="72.617" r="63.179"/>
<path style="opacity:0.35;fill:#C6C3CB;enable-background:new    ;" d="M209.049,117.696l88.885-92.342
	c0,0,18.289,12.605,21.251,36.26s2.671,52.733-30.256,68.171c-32.926,15.437-47.849,4.125-47.849,4.125L209.049,117.696z"/>
<g>
	<path style="opacity:0.35;fill:#73AFD6;enable-background:new    ;" d="M40.988,350.852v-50.385
		c0-34.565,28.28-62.845,62.845-62.845l0,0c34.565,0,62.845,28.28,62.845,62.845v50.385H40.988z"/>
	<path style="opacity:0.35;fill:#73AFD6;enable-background:new    ;" d="M195.206,350.852v-50.385
		c0-34.565,28.28-62.845,62.845-62.845l0,0c34.565,0,62.845,28.28,62.845,62.845v50.385H195.206z"/>
	<path style="opacity:0.35;fill:#73AFD6;enable-background:new    ;" d="M349.426,350.852v-50.385
		c0-34.565,28.28-62.845,62.845-62.845l0,0c34.565,0,62.845,28.28,62.845,62.845v50.385H349.426z"/>
	<path style="fill:#73AFD6;" d="M40.988,423.534v-60.676c0-34.565,28.28-62.845,62.845-62.845l0,0
		c34.565,0,62.845,28.28,62.845,62.845v60.676H40.988z"/>
	<path style="fill:#73AFD6;" d="M195.206,423.534v-60.676c0-34.565,28.28-62.845,62.845-62.845l0,0
		c34.565,0,62.845,28.28,62.845,73.136v50.385H195.206z"/>
	<path style="fill:#73AFD6;" d="M349.426,423.534v-60.676c0-34.565,28.28-62.845,62.845-62.845l0,0
		c34.565,0,62.845,28.28,62.845,73.136v50.385H349.426z"/>
	<path style="opacity:0.35;fill:#73AFD6;enable-background:new    ;" d="M40.988,380.118v-50.385
		c0-34.565,28.28-62.845,62.845-62.845l0,0c34.565,0,62.845,28.28,62.845,62.845v50.385H40.988z"/>
	<path style="opacity:0.35;fill:#73AFD6;enable-background:new    ;" d="M195.206,380.118v-50.385
		c0-34.565,28.28-62.845,62.845-62.845l0,0c34.565,0,62.845,28.28,62.845,62.845v50.385H195.206z"/>
	<path style="opacity:0.35;fill:#73AFD6;enable-background:new    ;" d="M349.426,380.118v-50.385
		c0-34.565,28.28-62.845,62.845-62.845l0,0c34.565,0,62.845,28.28,62.845,62.845v50.385H349.426z"/>
	<rect x="3.859" y="413.243" style="fill:#73AFD6;" width="504.281" height="37.73"/>
</g>
<path style="fill:#57545C;" d="M256.003,145.222c-40.038,0-72.611-32.573-72.611-72.611S215.965,0,256.003,0
	s72.611,32.573,72.611,72.611S296.041,145.222,256.003,145.222z M256.003,15.437c-31.526,0-57.174,25.648-57.174,57.174
	s25.648,57.174,57.174,57.174s57.174-25.648,57.174-57.174S287.529,15.437,256.003,15.437z"/>
<g>
	<polyline style="fill:#73AFD6;" points="57.9,450.972 57.9,512 24.076,512 24.076,450.972 	"/>
	<polyline style="fill:#73AFD6;" points="492.027,450.972 492.027,512 458.202,512 458.202,450.972 	"/>
	<polyline style="fill:#73AFD6;" points="279.839,450.972 279.839,512 246.015,512 246.015,450.972 	"/>
</g>
<path style="fill:#57545C;" d="M263.722,62.568V30.567c0-4.263-3.455-7.719-7.719-7.719c-4.263,0-7.719,3.456-7.719,7.719v31.998
	c-2.543,1.953-4.353,4.863-4.833,8.29c-0.152,1.09-0.146,2.162-0.027,3.207l-13.459,13.062c-3.06,2.969-3.133,7.855-0.164,10.914
	c1.514,1.56,3.526,2.343,5.54,2.343c1.937,0,3.876-0.725,5.375-2.18l13.451-13.054c0.027,0.004,0.051,0.011,0.078,0.015
	c6.932,0.97,13.338-3.862,14.308-10.795C269.209,69.69,267.215,65.258,263.722,62.568z"/>
<g>
	<rect x="24.076" y="450.972" style="fill:#174F79;" width="33.825" height="16.818"/>
	<rect x="40.988" y="396.54" style="fill:#174F79;" width="125.69" height="16.818"/>
	<rect x="195.208" y="396.54" style="fill:#174F79;" width="125.69" height="16.818"/>
	<rect x="349.426" y="396.54" style="fill:#174F79;" width="125.69" height="16.818"/>
	<rect x="246.017" y="450.972" style="fill:#174F79;" width="33.825" height="16.818"/>
	<rect x="458.207" y="450.972" style="fill:#174F79;" width="33.825" height="16.818"/>
</g>
<g>
</g>
<g>
</g>
<g>
</g>
<g>
</g>
<g>
</g>
<g>
</g>
<g>
</g>
<g>
</g>
<g>
</g>
<g>
</g>
<g>
</g>
<g>
</g>
<g>
</g>
<g>
</g>
<g>
</g>
</svg>
