<?xml version="1.0" encoding="iso-8859-1"?>
<!-- Generator: Adobe Illustrator 19.0.0, SVG Export Plug-In . SVG Version: 6.00 Build 0)  -->
<svg version="1.1" id="Capa_1" xmlns="http://www.w3.org/2000/svg" xmlns:xlink="http://www.w3.org/1999/xlink" x="0px" y="0px"
	 viewBox="0 0 512 512" style="enable-background:new 0 0 512 512;" xml:space="preserve">
<g transform="matrix(1.25 0 0 -1.25 0 45)">
	<path style="fill:#939598;" d="M0-339.467h409.6v22.756H0V-339.467z"/>
	<g>
		<g>
			<path style="fill:#D1D3D4;" d="M56.889-294.689l352.711,0.751v295.8H193.422c-68.267,0-79.644-34.122-79.644-34.122
				s-56.889-147.9-56.889-170.656V-294.689z"/>
			<path style="fill:#D1D3D4;" d="M159.289-271.2c0-6.292-5.097-11.378-11.378-11.378H56.889c-6.28,0-11.378,5.086-11.378,11.378
				v22.756c0,6.292,5.097,11.378,11.378,11.378h91.022c6.28,0,11.378-5.086,11.378-11.378L159.289-271.2L159.289-271.2z"/>
		</g>
		<path style="fill:#F4900C;" d="M409.6-328.089H51.507c-6.042,0-12.925,7.635-15.394,17.067l-8.897,34.133
			c-2.469,9.432,6.918,17.067,18.296,17.067H409.6V-328.089z"/>
		<path style="fill:#414042;" d="M409.6-43.644H250.391c-22.607,0-44.453-20.378-48.766-45.511l-11.753-68.267
			c-4.324-25.133,12.55-45.511,37.683-45.511h182.044L409.6-43.644L409.6-43.644z"/>
		<path style="fill:#3B88C3;" d="M409.6-66.4H262.77c-23.836,0-31.756-14.552-34.839-32.506l-8.385-48.766
			c-3.095-17.954,1.434-32.506,19.387-32.506H409.6V-66.4z"/>
		<path style="fill:#414042;" d="M193.422,1.867c-68.267,0-79.644-34.133-79.644-34.133S56.98-179.939,56.889-202.865
			c27.853,0.41,46.831,3.914,56.889,34.076c11.378,34.133,22.756,79.644,34.133,102.4c11.378,22.744,22.756,34.122,56.889,34.122
			c28.365,0,40.869,15.77,44.328,34.133H193.422z"/>
		<path style="fill:#55ACEE;" d="M102.4-134.662c10.74,32.222,41.677,84.673,6.827,90.442
			c-9.569-25.281-31.937-85.208-44.111-124.587h3.151C68.267-168.806,91.022-168.806,102.4-134.662"/>
		<path style="fill:#DD2E44;" d="M102.4-225.689c0-6.292-5.097-11.378-11.378-11.378H68.267c-6.28,0-11.378,5.086-11.378,11.378
			c0,6.292,5.097,11.378,11.378,11.378h22.756C97.303-214.311,102.4-219.397,102.4-225.689"/>
	</g>
</g>
<g>
</g>
<g>
</g>
<g>
</g>
<g>
</g>
<g>
</g>
<g>
</g>
<g>
</g>
<g>
</g>
<g>
</g>
<g>
</g>
<g>
</g>
<g>
</g>
<g>
</g>
<g>
</g>
<g>
</g>
</svg>
