<?xml version="1.0" encoding="iso-8859-1"?>
<!-- Generator: Adobe Illustrator 19.0.0, SVG Export Plug-In . SVG Version: 6.00 Build 0)  -->
<svg version="1.1" id="Capa_1" xmlns="http://www.w3.org/2000/svg" xmlns:xlink="http://www.w3.org/1999/xlink" x="0px" y="0px"
	 viewBox="0 0 512.279 512.279" style="enable-background:new 0 0 512.279 512.279;" xml:space="preserve">
<g transform="translate(-1)">
	<path style="fill:#1B2833;" d="M221.83,109.832l-38.233-53.521c-5.967-8.36-7.415-19.544-2.507-28.566
		c2.692-4.952,7.265-9.622,14.927-12.403c8.227-2.975,17.284-2.383,25.521,0.556c14.248,5.085,43.158,14.486,62.084,14.486h29.873
		c6.85,0,13.241,4.723,14.186,11.511c1.501,10.796-5.659,31.029-44.059,67.937C283.622,109.832,221.83,109.832,221.83,109.832z"/>
	<path style="fill:#2C3E50;" d="M513.14,463.588c0-16.993-10.681-28.646-20.295-35.69c-9.26-6.788-15.016-17.337-15.016-28.822
		v-112.04c-9.287-94.349-106.108-153.688-168.386-182.396c-33.183-15.289-71.424-15.289-104.607,0
		c-62.279,28.707-159.1,88.046-168.386,182.396v112.04c0,11.485-5.756,22.034-15.016,28.822
		c-9.613,7.044-20.295,18.697-20.295,35.69c0,0-5.517,35.31,52.966,35.31h203.034h203.034
		C518.657,498.899,513.14,463.588,513.14,463.588"/>
	<path style="fill:#1B2833;" d="M433.683,298.226c-4.414,0-8.236-3.302-8.757-7.795c-8.051-68.308-89.697-115.588-137.657-137.684
		c-18.997-8.766-41.26-8.766-60.257,0c-47.96,22.095-129.607,69.376-137.657,137.684c-0.565,4.846-4.908,8.316-9.799,7.733
		c-4.846-0.565-8.307-4.952-7.733-9.799c9.057-76.862,96.486-128.009,147.791-151.658c23.693-10.911,51.359-10.911,75.052,0
		c51.297,23.649,138.734,74.796,147.791,151.658c0.574,4.846-2.887,9.234-7.733,9.799
		C434.371,298.209,434.027,298.226,433.683,298.226"/>
</g>
<g>
</g>
<g>
</g>
<g>
</g>
<g>
</g>
<g>
</g>
<g>
</g>
<g>
</g>
<g>
</g>
<g>
</g>
<g>
</g>
<g>
</g>
<g>
</g>
<g>
</g>
<g>
</g>
<g>
</g>
</svg>
