<?xml version="1.0" encoding="iso-8859-1"?>
<!-- Generator: Adobe Illustrator 19.0.0, SVG Export Plug-In . SVG Version: 6.00 Build 0)  -->
<svg version="1.1" id="Capa_1" xmlns="http://www.w3.org/2000/svg" xmlns:xlink="http://www.w3.org/1999/xlink" x="0px" y="0px"
	 viewBox="0 0 512 512" style="enable-background:new 0 0 512 512;" xml:space="preserve">
<path style="fill:#93D6F4;" d="M304,279.742V68.333C304,38.878,280.122,15,250.667,15l0,0c-29.455,0-53.333,23.878-53.333,53.333
	v211.409c-36.751,19.239-61.833,57.732-61.834,102.09c-0.001,63.38,50.743,114.601,114.121,115.163
	c64.085,0.569,116.213-51.209,116.213-115.162C365.834,337.476,340.752,298.981,304,279.742z"/>
<path style="fill:#4BBAED;" d="M249.621,496.995c64.085,0.569,116.213-51.209,116.213-115.162
	c0-44.357-25.082-82.852-61.834-102.091V68.333C304,38.878,280.122,15,250.667,15l0,0"/>
<path style="fill:#DBF1FB;" d="M250.678,512c-0.396,0-0.792-0.002-1.189-0.005c-34.634-0.308-67.075-13.969-91.35-38.467
	c-24.272-24.496-37.64-57.061-37.639-91.696c0.001-45.505,23.472-87.16,61.834-110.803V68.333C182.334,30.654,212.988,0,250.667,0
	S319,30.654,319,68.333v202.696c38.363,23.644,61.834,65.299,61.834,110.805c0,34.987-13.686,67.82-38.536,92.451
	C317.732,498.633,285.235,512,250.678,512z M250.667,30c-21.137,0-38.333,17.196-38.333,38.333v220.488l-8.043,4.21
	c-33.179,17.369-53.79,51.396-53.791,88.801c0,26.674,10.28,51.74,28.948,70.58c18.669,18.84,43.638,29.347,70.306,29.583
	c26.949,0.224,52.304-10.067,71.425-29.019c19.124-18.955,29.655-44.221,29.655-71.144c0-37.406-20.611-71.433-53.791-88.802
	L289,288.82V68.333C289,47.196,271.804,30,250.667,30z"/>
<g>
	<rect x="182.67" y="219.67" style="fill:#388CB2;" width="29.667" height="30"/>
	<rect x="182.67" y="155.67" style="fill:#388CB2;" width="29.667" height="30"/>
	<rect x="182.67" y="91.67" style="fill:#388CB2;" width="29.667" height="30"/>
	<path style="fill:#388CB2;" d="M265.667,317.346V288h-30v29.346c-30.484,6.857-53.333,34.129-53.333,66.654
		c0,37.679,30.654,68.333,68.333,68.333S319,421.679,319,384C319,351.475,296.151,324.203,265.667,317.346z M250.667,422.333
		c-21.137,0-38.333-17.196-38.333-38.333s17.196-38.333,38.333-38.333S289,362.863,289,384S271.804,422.333,250.667,422.333z"/>
</g>
<g>
	<polygon style="fill:#B7E4F8;" points="160.319,111.561 139.106,90.348 130.856,98.598 122.606,90.348 101.394,111.561 
		109.644,119.811 101.394,128.06 122.606,149.273 130.856,141.023 139.106,149.273 160.319,128.06 152.069,119.811 	"/>
	<polygon style="fill:#B7E4F8;" points="107.106,202.727 98.856,210.977 90.606,202.727 69.394,223.94 77.644,232.189 
		69.394,240.439 90.606,261.652 98.856,253.402 107.106,261.652 128.319,240.439 120.069,232.189 128.319,223.94 	"/>
</g>
<g>
	<polygon style="fill:#93D6F4;" points="399.94,181.394 391.69,173.144 399.94,164.894 378.728,143.681 370.478,151.931 
		362.228,143.681 341.015,164.894 349.265,173.144 341.015,181.394 362.228,202.606 370.478,194.356 378.728,202.606 	"/>
	<polygon style="fill:#93D6F4;" points="442.606,245.273 421.394,224.06 413.145,232.31 404.895,224.06 383.682,245.273 
		391.932,253.522 383.682,261.772 404.895,282.985 413.145,274.736 421.394,282.985 442.606,261.772 434.356,253.522 	"/>
</g>
<path style="fill:#BFE8FB;" d="M319,271.029V68.333C319,30.654,288.346,0,250.667,0v30C271.804,30,289,47.196,289,68.333v220.488
	l8.043,4.21c33.18,17.369,53.791,51.396,53.791,88.802c0,26.923-10.531,52.189-29.655,71.144
	c-18.905,18.737-43.904,29.002-70.512,29.015V512h-0.096c0.035,0,0.07,0,0.106,0c34.558,0,67.055-13.367,91.62-37.716
	c24.851-24.631,38.536-57.464,38.536-92.451C380.834,336.328,357.363,294.673,319,271.029z"/>
<path style="fill:#265D77;" d="M265.667,317.346V288h-15.096v57.669c0.031,0,0.063-0.002,0.096-0.002
	C271.804,345.667,289,362.863,289,384s-17.196,38.333-38.333,38.333c-0.032,0-0.064-0.002-0.096-0.002v30
	c0.031,0,0.063,0.002,0.096,0.002C288.346,452.333,319,421.679,319,384C319,351.475,296.151,324.203,265.667,317.346z"/>
<g>
</g>
<g>
</g>
<g>
</g>
<g>
</g>
<g>
</g>
<g>
</g>
<g>
</g>
<g>
</g>
<g>
</g>
<g>
</g>
<g>
</g>
<g>
</g>
<g>
</g>
<g>
</g>
<g>
</g>
</svg>
